# xmcd
# 
# Track frame offsets:
#     150
#     21514
#     46370
#     63153
#     77886
#     100839
#     120534
#     140236
#     157471
#     171882
# 
# Disc length: 2533
# 
# Revision: 0
# Processed by: cddbd v1.5.2PL0 Copyright (c) Steve Scherf et al.
# Submitted via: fre:ac v1.0.31
# 
DISCID=8f09e30a
DTITLE=Chwila Nieuwagi - Niepoprawna muzyka
DYEAR=2010
DGENRE=Folk
TTITLE0=A kiedy mi przyjdzie
TTITLE1=Szybko
TTITLE2=Karczma
TTITLE3=Liryka
TTITLE4=Ojcze nasz, czyli modlitwa paniska
TTITLE5=Piosenka na niespanie
TTITLE6=Ratunku
TTITLE7=A jak spiewać
TTITLE8=Od ostatniej niedzieli
TTITLE9=Pedziała mi matka
EXTD=
EXTT0=
EXTT1=
EXTT2=
EXTT3=
EXTT4=
EXTT5=
EXTT6=
EXTT7=
EXTT8=
EXTT9=
PLAYORDER=
